<svg xmlns="http://www.w3.org/2000/svg" width="90" height="89" fill="none"><path fill="url(#a)" d="M4.202 3.783h81.76v81.005H4.203V3.783Z"/><path fill="#D8A1FF" d="M4.202 3.784h81.76v81.005H4.203V3.784ZM.487 88.572h89.21V0H.486v88.572Zm63.111-45.878c1.894 0 2.572 0 2.751-.072 0-.273.071-.455.071-.637 0-2.037-.964-5.821-4.823-5.821-3.572 0-5.09 3.183-5.466 6.549h7.467v-.019ZM56.06 47.88c.071 5.112 2.447 8.55 8.11 8.55 2.197 0 4.09-.31 6.055-1.165.268-.109.447-.072.447.273v4.73c0 .382-.107.564-.375.764-1.965.982-4.43 1.437-7.467 1.437-9.807 0-13.487-7.385-13.487-15.59 0-8.931 4.537-16.244 12.522-16.244 8.11 0 10.933 6.93 10.933 12.57 0 1.819-.108 3.292-.304 4.02-.072.31-.179.418-.482.491-.75.11-2.93.273-6.199.273h-9.736v-.11h-.017Zm-19.936-3.857c-1.036-4.202-3.573-13.352-4.501-17.79h-.072c-.786 4.42-2.822 11.915-4.34 17.79h8.913Zm-10.432 6.13-2.93 11.316c-.071.309-.178.418-.553.418h-5.484c-.376 0-.447-.11-.376-.564L26.907 23.74c.178-.673.303-1.218.375-3.11 0-.273.107-.382.303-.382h7.807c.268 0 .375.072.446.382l11.808 40.766c.072.31 0 .491-.304.491h-6.127c-.303 0-.482-.11-.554-.382l-3.054-11.351H25.692Z"/><defs><radialGradient id="a" cx="0" cy="0" r="1" gradientTransform="matrix(62.1407 0 0 61.2673 31.155 21.944)" gradientUnits="userSpaceOnUse"><stop stop-color="#442F55" stop-opacity=".98"/><stop offset="1" stop-color="#12002C"/></radialGradient></defs></svg>