<svg xmlns="http://www.w3.org/2000/svg" width="90" height="87" fill="none"><g clip-path="url(#a)"><path fill="url(#b)" d="M4.206 3.719h81.796v79.565H4.206V3.719Z"/><path fill="#AAD1EB" d="M4.206 3.72h81.796v79.564H4.206V3.72ZM.486 87h89.232V0H.487v87Zm52.236-50.38c0-.446 0-1.524-.185-3.605 0-.296.075-.37.296-.482 2.267-.928 7.66-2.566 13.681-2.566.296 0 .446.075.446.372v5.353c0 .297-.11.371-.446.371-2.341-.11-5.8.186-7.103.743v23.46c0 .297-.11.447-.446.447h-5.832c-.296 0-.446-.111-.446-.447V36.62h.035ZM25.211 60.713c-.446 0-.557-.186-.557-.557V20.188c0-.297.11-.482.446-.482h5.875c.296 0 .371.11.371.446V54.58h15.32c.296 0 .41.11.335.446l-.928 5.279c-.075.296-.26.446-.557.446H25.211v-.04Z"/></g><defs><radialGradient id="b" cx="0" cy="0" r="1" gradientTransform="matrix(62.1642 0 0 60.1863 31.146 21.551)" gradientUnits="userSpaceOnUse"><stop stop-color="#39464D" stop-opacity=".98"/><stop offset="1" stop-color="#05151F"/></radialGradient><clipPath id="a"><path fill="#fff" d="M.487 0h89.23v87H.488z"/></clipPath></defs></svg>