<svg xmlns="http://www.w3.org/2000/svg" width="90" height="87" fill="none"><g clip-path="url(#a)"><path fill="url(#b)" d="M4.196 3.709h81.585v79.36H4.196V3.709Z"/><path fill="#E579FF" d="M4.196 3.71h81.585v79.359H4.196V3.709ZM.486 86.775h89V0h-89v86.775Zm53.4-50.136c0-.445 0-1.52-.184-3.595 0-.296.035-.37.295-.48 2.26-.926 7.565-2.56 13.57-2.56.296 0 .446.074.446.37v5.375c0 .296-.11.37-.41.37-2.335-.11-5.71.186-7.01.741v23.364c0 .296-.11.446-.444.446h-5.82c-.296 0-.446-.11-.446-.446l.004-23.584Zm-23.734 3.375c.855.075 1.52.075 3.005.075 4.34 0 8.42-1.52 8.42-7.415 0-4.71-2.895-7.085-7.861-7.085-1.485 0-2.89.075-3.56.11l-.004 14.315Zm-6.56-19.694c0-.26.074-.445.37-.445 2.374-.11 5.86-.185 9.53-.185 10.27 0 14.76 5.636 14.76 12.87 0 9.42-6.825 13.46-15.205 13.46-1.41 0-1.89-.075-2.895-.075v14.24c0 .296-.11.445-.445.445h-5.71c-.295 0-.445-.11-.445-.445V20.32h.04Z"/></g><defs><radialGradient id="b" cx="0" cy="0" r="1" gradientTransform="matrix(62.0035 0 0 60.0306 31.067 21.495)" gradientUnits="userSpaceOnUse"><stop stop-color="#4B2D4F" stop-opacity=".98"/><stop offset="1" stop-color="#180024"/></radialGradient><clipPath id="a"><path fill="#fff" d="M.487 0h89v86.775h-89z"/></clipPath></defs></svg>