<svg xmlns="http://www.w3.org/2000/svg" width="90" height="89" fill="none"><path fill="url(#a)" d="M3.713 3.78h81.665v80.854H3.713V3.779Z"/><path fill="#31C5F0" d="M3.713 3.78h81.665v80.854H3.713V3.779ZM0 88.412h89.073V0H0v88.413Zm60.066-52.128c-2.927 0-3.927 1.508-3.927 2.761 0 1.363.66 2.308 4.606 4.38 5.819 2.87 7.64 5.632 7.64 9.666 0 6.05-4.534 9.302-10.657 9.302-3.23 0-6.016-.672-7.604-1.617-.268-.109-.304-.309-.304-.6V54.6c0-.381.179-.49.447-.308a13.66 13.66 0 0 0 7.461 2.235c2.928 0 4.16-1.254 4.16-2.944 0-1.363-.858-2.562-4.606-4.542-5.266-2.562-7.462-5.16-7.462-9.521 0-4.87 3.749-8.921 10.246-8.921 3.196 0 5.427.49 6.64 1.053.304.182.376.491.376.763v5.179c0 .309-.179.49-.554.381-1.642-1.053-4.052-1.69-6.462-1.69ZM28.15 40.773c.857.072 1.517.072 2.999.072 4.337 0 8.425-1.544 8.425-7.558 0-4.797-2.927-7.214-7.872-7.214a67.97 67.97 0 0 0-3.57.11l.018 14.59Zm-6.622-20.06c0-.272.517-.454.82-.454 2.375-.109 5.91-.182 9.568-.182 10.282 0 14.299 5.742 14.299 13.064 0 9.594-6.837 13.718-15.227 13.718-1.41 0-1.892-.072-2.892-.072v14.499c0 .309-.107.454-.446.454h-5.676c-.304 0-.447-.109-.447-.454V20.713Z"/><defs><radialGradient id="a" cx="0" cy="0" r="1" gradientTransform="matrix(62.0565 0 0 61.1565 30.617 21.92)" gradientUnits="userSpaceOnUse"><stop stop-color="#34364E" stop-opacity=".98"/><stop offset="1" stop-color="#0C0824"/></radialGradient></defs></svg>