<svg xmlns="http://www.w3.org/2000/svg" width="97" height="87" fill="none"><g fill-rule="evenodd" clip-path="url(#a)" clip-rule="evenodd"><path fill="#EA6C00" d="m19.993 31.223 28.394 55.575L.662 31.223h19.331ZM76.789 31.223 48.395 86.798 96.12 31.223H76.789Z"/><path fill="#FDAD00" d="M19.992 31.223H76.78L48.386 86.798 19.992 31.223Z"/><path fill="#FDD231" d="m48.386.424-26.9 2.843-1.494 27.957L48.386.424ZM48.386.424l26.9 2.843 1.493 27.957L48.386.424Z"/><path fill="#FDAD00" d="M96.12 31.224 75.294 3.268l1.495 27.956h19.33ZM.662 31.224 21.488 3.268l-1.495 27.956H.662Z"/><path fill="#FEEEB7" d="m48.386.424-28.394 30.8H76.78L48.386.424Z"/></g><defs><clipPath id="a"><path fill="#fff" d="M.487 0h96v86.899h-96z"/></clipPath></defs></svg>