<svg xmlns="http://www.w3.org/2000/svg" width="90" height="87" fill="none"><path fill="#E5E5E5" d="M8.486 21.512c.026-.089.152-.089.177 0l.116.407a.092.092 0 0 0 .111.064l.41-.103c.09-.023.154.087.09.153l-.295.303a.092.092 0 0 0 0 .128l.294.303c.065.066.002.176-.088.153l-.41-.103a.092.092 0 0 0-.112.064l-.116.407c-.025.089-.151.089-.177 0l-.116-.407a.092.092 0 0 0-.11-.064l-.411.103c-.09.023-.153-.087-.089-.153l.294-.303a.092.092 0 0 0 0-.128l-.294-.303c-.064-.066-.001-.176.089-.153l.41.103a.092.092 0 0 0 .11-.064l.117-.407Z"/><g clip-path="url(#a)"><path fill="#2E001E" d="M4.196 3.709h81.585v79.36H4.196V3.709Z"/><path fill="#FF2BC2" d="M.487 0v86.775h89V0h-89Zm3.71 3.71H85.78v79.359H4.196V3.709Z"/><path fill="#FF2BC2" d="M65.122 36.455c-.555-.26-1.26-.37-2.15-.37-4.674 0-7.79 3.595-7.79 9.569 0 6.824 3.19 9.57 7.345 9.57.89 0 1.855-.111 2.56-.41v-18.36h.035Zm-16.61 9.49c0-8.64 5.563-15.39 14.684-15.39.78 0 1.186 0 1.93.076v-9.64c0-.221.185-.371.37-.371h5.97c.296 0 .37.11.37.295V54.81c0 1 0 2.26.186 3.635 0 .26 0 .295-.225.41a22.075 22.075 0 0 1-9.494 2.15C54.257 61 48.51 56.035 48.51 45.945ZM35.865 39.94l10.385 20.135c.185.296.074.595-.225.595h-6.454c-.41 0-.595-.11-.78-.48a1590.541 1590.541 0 0 1-7.27-15.241h-.074c-2.225 4.97-4.67 10.385-7.045 15.28-.185.295-.37.409-.67.409h-6.151c-.37 0-.41-.296-.224-.52l10.16-19.544-9.826-19.43c-.224-.296 0-.556.26-.556h6.38c.37 0 .555.075.669.41 2.335 4.93 4.71 9.79 6.935 14.76h.075c2.15-4.896 4.524-9.827 6.785-14.686.185-.295.296-.48.67-.48h5.97c.295 0 .409.224.224.555L35.866 39.94Z"/></g><defs><clipPath id="a"><path fill="#fff" d="M.487 0h89v86.775h-89z"/></clipPath></defs></svg>